<svg width="30" height="30" fill="currentColor" xmlns="http://www.w3.org/2000/svg"><circle cx="15" cy="15" r="15"/><path d="M24.703 9.114a7.775 7.775 0 0 1-2.23.611 3.892 3.892 0 0 0 1.707-2.148 7.75 7.75 0 0 1-2.465.941A3.884 3.884 0 0 0 15.1 12.06a11.024 11.024 0 0 1-8.002-4.057A3.884 3.884 0 0 0 8.3 13.186a3.872 3.872 0 0 1-1.758-.485v.05a3.883 3.883 0 0 0 3.114 3.807 3.91 3.91 0 0 1-1.753.066 3.884 3.884 0 0 0 3.626 2.695 7.79 7.79 0 0 1-4.821 1.663c-.31 0-.62-.018-.927-.055a10.979 10.979 0 0 0 5.95 1.745c7.142 0 11.046-5.915 11.046-11.045 0-.167-.004-.335-.012-.502a7.892 7.892 0 0 0 1.936-2.008l.002-.003Z" fill="#fff"/></svg>