<svg width="30" height="30" fill="currentColor" xmlns="http://www.w3.org/2000/svg"><circle cx="15" cy="15" r="15" fill="#currentColor"/><g clip-path="url(#a)"><path fill-rule="evenodd" clip-rule="evenodd" d="M24.542 9.957c.138-.455 0-.79-.663-.79h-2.187c-.557 0-.814.289-.953.608 0 0-1.112 2.663-2.688 4.393-.51.502-.742.661-1.02.661-.14 0-.348-.159-.348-.615V9.957c0-.547-.154-.79-.617-.79h-3.44c-.348 0-.557.253-.557.494 0 .517.788.637.87 2.094v3.165c0 .694-.128.82-.406.82-.742 0-2.546-2.676-3.617-5.738-.208-.595-.418-.835-.977-.835H5.75c-.625 0-.75.289-.75.608 0 .568.742 3.392 3.454 7.126 1.808 2.55 4.354 3.932 6.673 3.932 1.391 0 1.563-.306 1.563-.835V18.07c0-.614.132-.737.572-.737.325 0 .881.16 2.18 1.39 1.483 1.457 1.727 2.11 2.562 2.11h2.188c.625 0 .938-.306.758-.913-.198-.603-.907-1.48-1.846-2.518-.51-.592-1.275-1.23-1.507-1.549-.325-.409-.232-.591 0-.955 0 0 2.666-3.689 2.944-4.941Z" fill="#fff"/></g><defs><clipPath id="a"><path fill="#fff" transform="translate(5 5)" d="M0 0h20v20H0z"/></clipPath></defs></svg>